<?xml version="1.0" encoding="utf-8"?>
<!-- Generator: Adobe Illustrator 24.1.2, SVG Export Plug-In . SVG Version: 6.00 Build 0)  -->
<svg version="1.1" id="Camada_1" xmlns="http://www.w3.org/2000/svg" xmlns:xlink="http://www.w3.org/1999/xlink" x="0px" y="0px"
	 viewBox="0 0 349.23 349.23" style="enable-background:new 0 0 349.23 349.23;" xml:space="preserve">
<style type="text/css">
	.st0{fill:#FFFFFF;}
</style>
<g>
	<path class="st0" d="M238.62,111.41c-0.02-1.04,0.08-21.4-0.96-38.11c-0.34-5.47-0.86-10.5-1.65-14.25
		c-0.14-0.66-1.02-3.02-1.3-3.52c-2.18-7.65-5.74-13.98-9.66-19.09c-8.56-11.19-18.79-16.58-19.87-17.23
		c-9.41-5.67-19.24-7.56-29.24-8.06c-0.55-0.03-2.45-0.01-3,0.03c-9.99,0.67-19.78,2.73-29.1,8.57c-1.07,0.67-11.2,6.24-19.56,17.57
		c-3.82,5.19-7.28,11.58-9.32,19.26c-0.27,0.51-2.39,12.35-2.63,17.83c-0.62,13.93,0.16,60.86,0.17,66.57c0,0,2.64,0.15,4.23-0.25
		c7.45-1.23,10.27-3.11,12.63-5.28c7.56-6.96,12.41-13.41,12.63-23.68c0.24-11.43,0-22.87,0.22-34.3
		c0.12-6.33,0.36-12.76,3.08-18.66c4.26-9.25,11.72-15.39,20.61-17.5c1.98-0.47,10.28-2.42,19.8,0.41
		c7.98,2.37,14.67,8.15,18.72,16.57c2.82,5.85,3.17,12.27,3.4,18.61c0.42,11.42,0.38,22.87,0.83,34.29
		c0.4,10.27,5.19,17.9,14.45,22.72c4.26,2.22,15.51,6.87,15.51,6.87C238.38,138.65,238.79,119.1,238.62,111.41L238.62,111.41z"/>
	<path class="st0" d="M198.75,73.94c0.12,13.22-10.51,24.03-23.73,24.15c-13.22,0.12-24.03-10.51-24.15-23.73
		c-0.12-13.22,10.51-24.03,23.73-24.15C187.83,50.09,198.64,60.72,198.75,73.94L198.75,73.94z"/>
	<path class="st0" d="M112.55,238.21c0.02,1.04-0.08,21.4,0.96,38.11c0.34,5.47,0.86,10.5,1.65,14.25c0.14,0.66,1.02,3.02,1.3,3.52
		c2.18,7.64,5.74,13.98,9.66,19.09c8.56,11.19,18.79,16.58,19.87,17.23c9.41,5.67,19.24,7.56,29.24,8.06c0.55,0.03,2.45,0.01,3-0.03
		c9.99-0.67,19.78-2.73,29.1-8.57c1.07-0.67,11.2-6.24,19.56-17.57c3.82-5.19,7.28-11.58,9.32-19.26
		c0.27-0.51,2.39-12.35,2.63-17.83c0.62-13.93-0.16-60.86-0.17-66.57c0,0-2.64-0.15-4.23,0.25c-7.45,1.23-10.27,3.11-12.63,5.28
		c-7.56,6.96-12.41,13.41-12.63,23.68c-0.24,11.43,0,22.87-0.22,34.3c-0.12,6.33-0.36,12.76-3.08,18.66
		c-4.26,9.25-11.72,15.39-20.61,17.5c-1.98,0.47-10.28,2.42-19.8-0.42c-7.98-2.37-14.67-8.15-18.72-16.57
		c-2.82-5.85-3.17-12.27-3.4-18.61c-0.42-11.42-0.38-22.87-0.83-34.29c-0.4-10.27-5.19-17.9-14.45-22.72
		c-4.27-2.22-15.51-6.87-15.51-6.87C112.79,210.96,112.38,230.51,112.55,238.21L112.55,238.21z"/>
	<path class="st0" d="M152.41,275.67c-0.12-13.22,10.51-24.03,23.73-24.15c13.22-0.12,24.03,10.51,24.15,23.73
		c0.12,13.22-10.51,24.03-23.73,24.15C163.34,299.52,152.53,288.89,152.41,275.67L152.41,275.67z"/>
	<path class="st0" d="M238.34,237.77c1.04-0.02,21.4,0.08,38.11-0.96c5.47-0.34,10.5-0.86,14.25-1.65c0.66-0.14,3.02-1.02,3.52-1.3
		c7.65-2.18,13.98-5.74,19.09-9.66c11.19-8.56,16.58-18.79,17.23-19.87c5.67-9.41,7.56-19.24,8.06-29.24c0.03-0.55,0.01-2.45-0.03-3
		c-0.67-9.99-2.73-19.78-8.57-29.1c-0.67-1.07-6.24-11.2-17.57-19.56c-5.19-3.82-11.58-7.28-19.26-9.32
		c-0.51-0.27-12.35-2.39-17.83-2.63c-13.93-0.62-60.86,0.16-66.57,0.17c0,0-0.15,2.64,0.25,4.23c1.23,7.45,3.11,10.27,5.28,12.63
		c6.96,7.56,13.41,12.41,23.68,12.63c11.43,0.24,22.87,0,34.3,0.22c6.33,0.12,12.76,0.36,18.66,3.08
		c9.25,4.26,15.39,11.72,17.5,20.61c0.47,1.98,2.42,10.28-0.41,19.8c-2.37,7.98-8.15,14.67-16.57,18.72
		c-5.85,2.82-12.27,3.17-18.61,3.4c-11.42,0.42-22.91-0.21-34.29,0.83c-13.55,1.24-20.45,8.11-26.48,17.85
		c-2.76,4.45-2.91,12.2-2.91,12.2C211.3,237.62,230.64,237.94,238.34,237.77L238.34,237.77z"/>
	<path class="st0" d="M276.37,197.91c-13.22,0.12-24.03-10.51-24.15-23.73c-0.12-13.22,10.51-24.03,23.73-24.15
		c13.22-0.12,24.03,10.51,24.15,23.73C300.22,186.98,289.59,197.79,276.37,197.91L276.37,197.91z"/>
	<path class="st0" d="M112.83,111.84c-1.04,0.02-21.4-0.08-38.11,0.96c-5.47,0.34-10.5,0.86-14.25,1.65
		c-0.66,0.14-3.02,1.02-3.52,1.3c-7.64,2.18-13.98,5.74-19.09,9.66c-11.19,8.56-16.58,18.79-17.23,19.87
		c-5.67,9.41-7.56,19.24-8.06,29.24c-0.03,0.55-0.01,2.45,0.03,3c0.67,9.99,2.73,19.78,8.57,29.1c0.67,1.07,6.24,11.2,17.57,19.56
		c5.19,3.82,11.58,7.28,19.26,9.32c0.51,0.27,12.35,2.39,17.82,2.63c13.93,0.62,60.86-0.16,66.57-0.17c0,0,0.15-2.64-0.25-4.23
		c-1.23-7.45-3.11-10.27-5.28-12.63c-6.96-7.56-13.41-12.41-23.68-12.63c-11.43-0.24-22.87,0-34.3-0.22
		c-6.33-0.12-12.76-0.36-18.66-3.08c-9.25-4.26-15.39-11.72-17.5-20.61c-0.47-1.98-2.42-10.28,0.41-19.8
		c2.37-7.98,8.15-14.67,16.57-18.72c5.85-2.82,12.27-3.17,18.61-3.4c11.42-0.42,22.87-0.38,34.29-0.83
		c10.27-0.4,19.02-5.74,26.11-17.77c3.11-5.28,3.49-12.19,3.49-12.19C140.07,112.08,120.52,111.67,112.83,111.84L112.83,111.84z"/>
	<path class="st0" d="M74.8,151.7c13.22-0.12,24.03,10.51,24.15,23.73c0.12,13.22-10.51,24.03-23.73,24.15
		c-13.22,0.12-24.03-10.51-24.15-23.73C50.95,162.63,61.57,151.82,74.8,151.7L74.8,151.7z"/>
</g>
</svg>
