<?xml version="1.0" encoding="utf-8"?>
<!-- Generator: Adobe Illustrator 24.1.2, SVG Export Plug-In . SVG Version: 6.00 Build 0)  -->
<svg version="1.1" xmlns="http://www.w3.org/2000/svg" xmlns:xlink="http://www.w3.org/1999/xlink" x="0px" y="0px"
	 viewBox="0 0 1087.11 349.23" style="enable-background:new 0 0 1087.11 349.23;" xml:space="preserve">
<style type="text/css">
	.st0{fill:#FFFFFF;}
</style>
<g id="Camada_1">
	<g>
		<path class="st0" d="M174.02,98.09c13.22-0.12,23.85-10.93,23.73-24.15c-0.12-13.22-10.93-23.85-24.15-23.73
			c-13.22,0.12-23.85,10.93-23.73,24.15C149.99,87.58,160.8,98.2,174.02,98.09z"/>
		<path class="st0" d="M175.14,251.52c-13.22,0.12-23.85,10.93-23.73,24.15c0.12,13.22,10.93,23.85,24.15,23.73
			c13.22-0.12,23.85-10.93,23.73-24.15C199.17,262.03,188.36,251.41,175.14,251.52z"/>
		<path class="st0" d="M337.57,172.09c-0.67-9.99-2.73-19.78-8.57-29.1c-0.67-1.07-6.24-11.2-17.57-19.56
			c-5.19-3.82-11.58-7.28-19.26-9.32c-0.51-0.27-12.35-2.39-17.83-2.63c-7.02-0.31-22.44-0.27-36.73-0.15
			c-0.02-1.57,0.06-21.57-0.96-38.04c-0.34-5.47-0.86-10.5-1.65-14.25c-0.14-0.66-1.02-3.02-1.3-3.52
			c-2.18-7.65-5.74-13.98-9.66-19.09c-8.56-11.19-18.79-16.58-19.87-17.23c-9.41-5.67-19.24-7.56-29.24-8.06
			c-0.55-0.03-2.45-0.01-3,0.03c-9.99,0.67-19.78,2.73-29.1,8.57c-1.07,0.67-11.2,6.24-19.56,17.57
			c-3.82,5.19-7.28,11.58-9.32,19.26c-0.27,0.51-2.39,12.35-2.63,17.83c-0.32,7.14-0.27,22.96-0.14,37.45
			c-3.71,0.01-22.12,0.01-37.47,0.96c-5.47,0.34-10.5,0.86-14.25,1.65c-0.66,0.14-3.02,1.02-3.52,1.3
			c-7.64,2.18-13.98,5.74-19.09,9.66c-11.19,8.56-16.58,18.79-17.23,19.87c-5.67,9.41-7.56,19.24-8.06,29.24
			c-0.03,0.55-0.01,2.45,0.03,3c0.67,9.99,2.73,19.78,8.57,29.1c0.67,1.07,6.24,11.2,17.57,19.56c5.19,3.82,11.58,7.28,19.26,9.32
			c0.51,0.27,12.35,2.39,17.82,2.63c7.02,0.31,22.44,0.27,36.73,0.15c0.02,1.57-0.06,21.57,0.96,38.04
			c0.34,5.47,0.86,10.5,1.65,14.25c0.14,0.66,1.02,3.02,1.3,3.52c2.18,7.64,5.74,13.98,9.66,19.09
			c8.56,11.19,18.79,16.58,19.87,17.23c9.41,5.67,19.24,7.56,29.24,8.06c0.55,0.03,2.45,0.01,3-0.03c9.99-0.67,19.78-2.73,29.1-8.57
			c1.07-0.67,11.2-6.24,19.56-17.57c3.82-5.19,7.28-11.58,9.32-19.26c0.27-0.51,2.39-12.35,2.63-17.83
			c0.32-7.14,0.27-22.96,0.14-37.45c3.71-0.01,22.12,0,37.47-0.96c5.47-0.34,10.5-0.86,14.25-1.65c0.66-0.14,3.02-1.02,3.52-1.3
			c7.65-2.18,13.98-5.74,19.09-9.66c11.19-8.56,16.58-18.79,17.23-19.87c5.67-9.41,7.56-19.24,8.06-29.24
			C337.63,174.55,337.61,172.64,337.57,172.09z M307.03,184.85c-2.37,7.98-8.15,14.67-16.57,18.72c-5.85,2.82-12.27,3.17-18.61,3.4
			c-11.42,0.42-22.91-0.21-34.29,0.83c-4.47,0.41-8.2,1.44-11.43,2.97c-2.03,0.81-3.42,1.74-4.6,2.74
			c-4.19,3.09-7.43,7.25-10.45,12.13c-1.4,2.26-2.13,5.37-2.51,7.89c-0.17,1.04-0.29,2.12-0.35,3.24c-0.04,0.66-0.05,1.08-0.05,1.08
			c-0.24,11.43,0,22.87-0.22,34.3c-0.12,6.33-0.36,12.76-3.08,18.66c-4.26,9.25-11.72,15.39-20.61,17.5
			c-1.98,0.47-10.28,2.42-19.8-0.42c-7.98-2.37-14.67-8.15-18.72-16.57c-2.82-5.85-3.17-12.27-3.4-18.61
			c-0.42-11.42-0.38-22.87-0.83-34.29c-0.02-0.48-0.06-0.94-0.09-1.4c0.01-0.91-0.02-2.32-0.27-3.31
			c-1.23-7.45-3.11-10.27-5.28-12.63c-6.96-7.56-13.41-12.41-23.68-12.63c-11.43-0.24-22.87,0-34.3-0.22
			c-6.33-0.12-12.76-0.36-18.66-3.08c-9.25-4.26-15.39-11.72-17.5-20.61c-0.47-1.98-2.42-10.28,0.41-19.8
			c2.37-7.98,8.15-14.67,16.57-18.72c5.85-2.82,12.27-3.17,18.61-3.4c11.42-0.42,22.87-0.38,34.29-0.83
			c4.35-0.17,8.41-1.23,12.2-3.3c2.02-0.91,3.36-1.95,4.57-3.06c0.15-0.13,0.28-0.27,0.43-0.4c1.2-1.02,2.36-2.17,3.49-3.45
			c4.3-4.59,7.24-9.31,8.28-15.42c0.52-2.49,0.62-4.32,0.62-4.32c-0.05,0.01-0.13,0.01-0.21,0.02c0-0.04,0-0.07,0.01-0.1
			c0.24-11.43,0-22.87,0.22-34.3c0.12-6.33,0.36-12.76,3.08-18.66c4.26-9.25,11.72-15.39,20.61-17.5c1.98-0.47,10.28-2.42,19.8,0.41
			c7.98,2.37,14.67,8.15,18.72,16.57c2.82,5.85,3.17,12.27,3.4,18.61c0.42,11.42,0.38,22.87,0.83,34.29
			c0.02,0.47,0.06,0.94,0.09,1.4c-0.01,0.91,0.02,2.32,0.27,3.31c1.23,7.45,3.11,10.27,5.28,12.63
			c6.96,7.56,13.41,12.41,23.68,12.63c11.43,0.24,22.87,0,34.3,0.22c6.33,0.12,12.76,0.36,18.66,3.08
			c9.25,4.26,15.39,11.72,17.5,20.61C307.92,167.03,309.86,175.33,307.03,184.85z"/>
		<path class="st0" d="M274.95,150.03c-13.22,0.12-23.85,10.93-23.73,24.15c0.12,13.22,10.93,23.85,24.15,23.73
			c13.22-0.12,23.85-10.93,23.73-24.15C298.98,160.53,288.17,149.91,274.95,150.03z"/>
		<path class="st0" d="M73.79,151.7c-13.22,0.12-23.85,10.93-23.73,24.15c0.12,13.22,10.93,23.84,24.15,23.73
			c13.22-0.12,23.85-10.93,23.73-24.15C97.83,162.21,87.02,151.59,73.79,151.7z"/>
	</g>
	<g>
		<path class="st0" d="M750.69,139.25c16.64,0.06,38.76-0.55,49.23-0.48c1.36,0.01,6-0.01,7.05-0.36c2.5-0.83,4.85-3.61,6.24-6.23
			c4.63-8.67,9.69-15.94,14.66-24.6c-0.52-0.26-0.86-0.57-1.2-0.57c-17.46-0.3-46.69-0.22-64.14,0.67
			c-14.63,0.75-27.55,4.03-38.3,11.98c-19.58,14.48-16.85,36.52-15.52,42.99c1.4,6.82,4.23,11.56,7.25,14.99
			c6.13,6.89,14.32,9.8,22.73,10.91c9.1,1.19,18.46,0.27,25.74-0.03c7.88-0.33,16.05,0.36,21.41,0.97c5.06,0.59,8.47,3.62,8.04,9.19
			c-0.44,5.73-3.92,8.87-8.58,10.7c-3,1.18-6.5,1.82-9.98,2.25c-17.96,0.16-40.21,0.86-51.75,0.64c-2.02-0.12-3.55,0.08-4.81,0.98
			c-0.57-0.62-1.77-1.03-3.92-1.03c-7.88,0-11.1-0.26-19.1,0.05c-1.08,0.04-36.62,0.15-48.61-2.45c-5.86-1.94-3.14-11.56-3.87-37.04
			c-0.34-11.96,0.07-23.53-0.52-35.4c-0.4-8.06-3.39-14.53-9-19.32c-1.82-1.55-11.1-8.87-14.44-10.14c-1.3-0.49-6.32-1.45-7.35-0.2
			c-0.5,0.6-1.1,2.22-1.03,3.13c0.6,7.97-0.21,18.15,0.06,26.14c0.04,1.08-0.06,36.37-0.06,54.8c0,5.7-0.42,19.11,3.87,29.4
			c4.62,11.07,23.19,19.99,28.47,19.99c10.74,0,49.31,0.29,58.8-0.21c-0.03,0.05-0.06,0.1-0.09,0.16c0.53,0.25,1.16,0.07,1.5,0.08
			l68.58-0.07c14.62-0.91,27.47-5.51,38.14-13.57c11.36-8.59,15.06-19.69,15.89-28.72c0.59-6.4-1.09-15.63-2.86-19.74
			c-4.27-9.96-8.84-15.86-19.96-18.02c-1.65-0.32-29.23-1.47-41.12-1.6c-7.57-0.08-21.52,1.82-21.59-9.52
			c-0.02-3.78,0.84-6.48,2.55-8.22C744.79,140.03,747.33,139.24,750.69,139.25z"/>
		<path class="st0" d="M604.28,111.88c0.17-2.25-0.82-6.58-6.66-3.83c-3.59,1.69-17.7,12.25-20.2,16.44
			c-2.25,3.78-3.49,8.2-3.75,13.26c-0.59,11.87-0.7,23.76-1.27,35.63c-0.32,6.58-0.75,13.25-3.69,19.3
			c-5.27,10.84-14.67,17.29-25.45,18.07c-10.78-0.78-20.18-7.23-25.45-18.07c-2.94-6.04-3.37-12.72-3.69-19.3
			c-0.57-11.87-0.68-23.76-1.27-35.63c-0.25-5.06-1.5-9.48-3.75-13.26c-2.5-4.2-16.61-14.75-20.2-16.44
			c-5.84-2.75-6.83,1.58-6.66,3.83c0.6,7.97-0.32,56.98-0.21,66.32c0.33,27.51,16.01,50.94,40.17,59.45
			c5.28,1.86,10.55,3.02,15.79,3.46c0,0.04,0,0.08,0,0.12c1.11,0.06,9.42,0.06,10.53,0c0-0.04,0-0.08,0-0.12
			c5.23-0.44,10.5-1.6,15.79-3.46c24.16-8.52,39.84-31.94,40.17-59.45C604.6,168.86,603.68,119.85,604.28,111.88z"/>
		<path class="st0" d="M953.01,170.24c-0.33-27.51-16.01-50.94-40.17-59.45c-5.28-1.86-10.55-3.02-15.79-3.46c0-0.04,0-0.08,0-0.11
			c-1.11-0.06-9.42-0.06-10.53,0c0,0.04,0,0.08,0,0.11c-5.23,0.44-10.5,1.6-15.79,3.46c-24.16,8.52-39.84,31.94-40.17,59.45
			c-0.11,9.34,0.81,58.35,0.21,66.32c-0.17,2.25,0.82,6.58,6.66,3.83c3.59-1.69,17.7-12.25,20.2-16.44c1.86-3.12,3.02-6.7,3.51-10.7
			c9.46-0.44,20.55-0.99,22.49-1.01c5.06-0.06,9.53-1.14,13.39-3.25c4.29-2.34,15.36-16.05,17.18-19.57
			c2.96-5.73-1.33-6.88-3.58-6.8c-3.23,0.12-30.39,0.75-48.31,0.63c0.09-2.73,0.2-5.47,0.33-8.2c0.32-6.58,0.75-13.25,3.69-19.3
			c5.27-10.84,14.67-17.29,25.45-18.07c10.78,0.78,20.18,7.23,25.45,18.07c2.94,6.04,3.37,12.72,3.69,19.3
			c0.57,11.87,0.68,23.76,1.27,35.63c0.25,5.06,1.5,9.48,3.75,13.26c2.5,4.2,16.61,14.75,20.2,16.44c5.84,2.75,6.83-1.58,6.66-3.83
			C952.2,228.59,953.12,179.58,953.01,170.24z"/>
		<path class="st0" d="M464.02,124.42c-10.56-10.65-27.01-16.14-46.07-15.87c-18.37-1.02-51.16-1.11-69.54-0.77
			c-0.36,0.01-0.71,0.36-1.27,0.66c5.23,9.94,9.93,16.99,14.81,26.93c1.77,3.61,3.88,4.33,7.34,4.06c3.11,0.04,5.99,0.07,8.67,0.07
			c9.41,0.02,31.35-0.68,46.98,1c19.37,2.08,24.93,18.11,13.53,25.96c-7.2,4.95-20.46,3.56-27.7,3.76
			c-4.35,0.12-10.51,0.61-16.68,1.66c0,0,0,0,0-0.01c-0.11,0.02-0.22,0.04-0.33,0.06c-5.34,0.92-10.68,2.25-14.86,4.13
			c0.03,0.06,0.05,0.12,0.08,0.18c-2.58,1.16-4.71,2.44-6.39,3.8c-6.31,5.11-9.39,13.29-10.14,21.22c-0.16,1.65-0.16,2.43-0.04,6.39
			c0.52,5.09,2.03,10.8,3.62,13.86c2.39,4.6,16.71,16.63,20.41,18.63c6.02,3.26,7.33-1.26,7.28-3.66
			c-0.03-1.51-0.05-8.01-0.05-16.51c0.1-0.8,0.1-1.93,0.09-3.75c-0.02-5.22-0.24-11.12,1.64-12.48c7.26-5.24,46.25,3.53,65.86-10.11
			c6.64-4.62,11.41-11.6,13.37-22.05c1.41-6.2,1.97-11.99,1.77-17.33C475.93,141.91,471.43,131.89,464.02,124.42z"/>
		<path class="st0" d="M1072,171.58c1.41-6.2,1.97-11.99,1.77-17.33c-0.46-12.35-4.96-22.36-12.37-29.83
			c-10.56-10.65-27.01-16.14-46.07-15.87c-18.37-1.02-51.16-1.11-69.54-0.77c-0.36,0.01-0.71,0.36-1.27,0.66
			c5.23,9.94,9.93,16.99,14.81,26.93c1.77,3.61,3.88,4.33,7.34,4.06c3.11,0.04,5.99,0.07,8.67,0.07c9.41,0.02,31.35-0.68,46.98,1
			c19.37,2.08,24.93,18.11,13.53,25.96c-7.2,4.95-20.46,3.56-27.69,3.76c-5.47,0.15-13.65,0.92-21.2,2.63
			c-2.85,0.65-4.83,1.42-6.17,2.26c-4.67,1.57-8.24,3.44-10.81,5.52c-6.31,5.11-9.39,13.29-10.14,21.22
			c-0.16,1.65-0.16,2.43-0.04,6.39c0.1,0.96,0.23,1.95,0.39,2.93c0.03,12.82,0,23.86-0.04,25.9c-0.04,2.4,1.27,6.92,7.28,3.66
			c3.7-2,18.01-14.03,20.41-18.63c1.39-2.68,2.73-7.4,3.38-11.95c0.18-0.67,0.25-1.35,0.24-1.91l0,0c0-0.02,0-0.03,0-0.05
			c0.34-2.09,0.43-3.8,1.32-4.44c1.29-0.93,3.6-1.42,6.61-1.67c0.98,0,2.43-0.04,3.02,0.62c5.89,6.59,24.98,27.29,26.87,29.52
			c3.28,3.86,6.96,6.62,11.04,8.25c4.54,1.81,22.16,1.61,26.03,0.77c6.3-1.37,4.46-5.41,2.95-7.09
			c-1.89-2.12-17.27-19.63-29.15-33.75c6.88-1.15,13.35-3.18,18.49-6.75C1065.27,189.01,1070.03,182.03,1072,171.58z"/>
	</g>
</g>
<g id="Camada_2">
</g>
<g id="Camada_3">
</g>
</svg>
